<svg width="32" height="32" viewBox="0 0 32 32" fill="none" xmlns="http://www.w3.org/2000/svg">
  <defs>
    <linearGradient id="logoGradient" x1="0%" y1="0%" x2="100%" y2="100%">
      <stop offset="0%" style="stop-color:#2563EB;stop-opacity:1" />
      <stop offset="50%" style="stop-color:#3B82F6;stop-opacity:1" />
      <stop offset="100%" style="stop-color:#06B6D4;stop-opacity:1" />
    </linearGradient>
  </defs>
  
  <!-- Background circle -->
  <circle cx="16" cy="16" r="14" fill="url(#logoGradient)" stroke="white" stroke-width="2"/>
  
  <!-- Git branch icon -->
  <path d="M8 12C8 10.9 8.9 10 10 10C11.1 10 12 10.9 12 12C12 13.1 11.1 14 10 14C8.9 14 8 13.1 8 12Z" fill="white"/>
  <path d="M20 18C20 16.9 20.9 16 22 16C23.1 16 24 16.9 24 18C24 19.1 23.1 20 22 20C20.9 20 20 19.1 20 18Z" fill="white"/>
  <path d="M10 12L22 18" stroke="white" stroke-width="2" stroke-linecap="round"/>
  <path d="M12 12L20 18" stroke="white" stroke-width="2" stroke-linecap="round"/>
  
  <!-- Code symbol -->
  <path d="M16 8L14 10L16 12L18 10L16 8Z" fill="white"/>
  <path d="M16 20L14 22L16 24L18 22L16 20Z" fill="white"/>
  
  <!-- Active indicator -->
  <circle cx="24" cy="8" r="3" fill="#10B981" stroke="white" stroke-width="1"/>
  <circle cx="24" cy="8" r="1.5" fill="white"/>
</svg>
